Coordinates
version=1
nRows=9
nColumns=26
inDegrees=yes

Units are S.I. units (second, meters, Newtons, ...)
If the header above contains a line with 'inDegrees', this indicates whether rotational values are in degrees (yes) or radians (no).

endheader
time	pelvis_tilt	pelvis_list	pelvis_rotation	pelvis_tx	pelvis_ty	pelvis_tz	hip_flexion_r	hip_adduction_r	hip_rotation_r	knee_angle_r	knee_angle_r_beta	ankle_angle_r	subtalar_angle_r	mtp_angle_r	hip_flexion_l	hip_adduction_l	hip_rotation_l	knee_angle_l	knee_angle_l_beta	ankle_angle_l	subtalar_angle_l	mtp_angle_l	lumbar_ext	lumbar_bend	lumbar_rota
      5.05000000	    -13.36428901	      1.21628283	      9.74873146	      1.45785682	      0.91846353	     -0.34101121	     26.60426685	     -7.24093415	     -0.74417133	    108.53302969	      1.89425872	    -16.87740342	      0.96433975	      0.00000000	     35.09669424	     12.45888671	      5.24654591	     42.25643178	      0.73751386	     17.67998337	     33.36932320	      0.00000000	     -2.31047097	     -4.85638448	     -7.79799242
      5.06000000	    -13.52647286	      0.00142379	      8.11687054	      1.45648664	      0.91619817	     -0.33546896	     31.83696428	     -5.38163827	     -1.26278220	    112.69240972	      1.96685359	    -14.95828498	    -13.63443473	      0.00000000	     32.38981801	      6.53216636	      2.21412645	     39.93401623	      0.69698007	      3.53319646	    -34.71821576	      0.00000000	     -2.15040638	     -3.87002922	     -7.24390195
      5.07000000	    -14.07463996	      0.82608726	      9.20385839	      1.45235285	      0.91583027	     -0.34097744	     35.24162970	     -7.19283649	      0.71865822	    111.20434866	      1.94088203	    -14.40151579	      0.84514762	      0.00000000	     31.22086221	     11.92158587	      6.77641246	     43.29760271	      0.75568573	     20.50794316	     33.13302562	      0.00000000	     -2.06791292	     -4.06164898	    -10.72710887
      5.08000000	    -14.23796044	      0.85629339	      9.33599442	      1.45028348	      0.91634038	     -0.34245302	     39.03605456	     -7.71038073	      0.95342524	    111.20034140	      1.94081209	    -13.64170403	     -0.34659028	      0.00000000	     28.50917038	     11.77962035	      7.24893584	     42.83651636	      0.74763825	     21.12157327	     33.21689116	      0.00000000	     -1.91791303	     -3.81304127	    -12.57269522
      5.09000000	    -14.61846406	      0.58498674	      9.51981706	      1.44853191	      0.91794060	     -0.34418067	     42.86142669	     -8.02240300	      0.82534318	    110.34600122	      1.92590104	    -13.29606407	     -1.88580606	      0.00000000	     25.97613053	     11.29516645	      7.81855117	     42.12592737	      0.73523613	     21.14505257	     33.30085602	      0.00000000	     -1.28039670	     -3.12441894	    -15.20451486
      5.10000000	    -15.25452414	      0.42900542	      9.82039495	      1.44787591	      0.92031647	     -0.34607146	     46.44560526	     -8.71695912	      0.57552882	    108.56057264	      1.89473943	    -12.29060126	     -2.69184112	      0.00000000	     23.37256649	     10.91449295	      8.55456934	     40.81997646	      0.71244299	     20.75267598	     33.53027184	      0.00000000	     -0.16515084	     -2.80922275	    -16.38611851
      5.11000000	    -15.65044755	      0.23344806	      9.99334390	      1.44811221	      0.92423822	     -0.34821282	     49.59433531	     -9.46498439	     -0.00040443	    106.01861583	      1.85037391	    -13.04182643	     -4.21891309	      0.00000000	     20.26206931	     10.37237907	      9.34134527	     38.87385686	      0.67847680	     19.57501931	     33.58487622	      0.00000000	      0.90104966	     -2.05657618	    -19.09145623
      5.12000000	    -16.28224904	     -0.16152435	      9.41192400	      1.44862677	      0.92832401	     -0.34884059	     52.69137855	     -9.13610598	     -0.27224314	    102.81761742	      1.79450595	    -13.39594163	     -5.80775749	      0.00000000	     17.57301930	      9.27454102	      9.20870813	     36.80790473	      0.64241913	     17.66462567	     33.68326120	      0.00000000	      2.25916951	     -1.30051616	    -20.01322971
      5.13000000	    -16.58238039	     -0.50660346	      9.08261530	      1.45082115	      0.93348088	     -0.35094424	     54.60732698	     -9.21375982	     -1.00690557	     98.94756739	      1.72696084	    -12.73599180	     -7.28478909	      0.00000000	     14.21977048	      8.36634352	      9.46377072	     34.30378772	      0.59871404	     15.35575962	     33.71246738	      0.00000000	      3.44286217	     -0.40749316	    -21.07117547
